<svg xmlns="http://www.w3.org/2000/svg" viewBox="0 0 924.27 614.98"><defs><style>.cls-1{opacity:0.1;}.cls-2{fill:#f9ac1b;}.cls-2,.cls-5,.cls-8{opacity:0.1;}.cls-2,.cls-5{isolation:isolate;}.cls-3{fill:#92b0ee;}.cls-4{fill:#3f3d56;}.cls-6{fill:#0d1f25;}.cls-7{fill:#fabdbd;}.cls-9{fill:#f86d70;}.cls-10{fill:#e36329;}.cls-11{fill:#6c63ff;}</style></defs><title>alert_bg</title><g id="Layer_2" data-name="Layer 2"><g id="contributor"><g class="cls-1"><path class="cls-2" d="M538.73,122.66C484.36,120.73,432.57,103.17,383.15,84S284.72,43.52,231.65,33.35C197.51,26.8,158.47,25.88,131,44.18c-26.47,17.64-35,48-39.62,76.23-3.46,21.22-5.49,43.55,4,63.42,6.59,13.8,18.27,25.39,26.35,38.61,28.12,46,8.24,102.67-22.22,147.56-14.28,21.06-30.88,41.17-41.91,63.57s-16.13,48.1-6.48,71c9.56,22.68,32.35,39.69,57,51.66C158.27,580.5,217.34,587.47,275,591.41c127.56,8.73,255.8,4.95,383.69,1.17,47.33-1.4,94.87-2.82,141.43-10.14,25.86-4.07,52.55-10.52,71.33-26.09,23.83-19.77,29.73-53.25,13.76-78-26.78-41.58-100.82-51.91-119.56-96.53-10.3-24.56.28-51.92,15.26-74.7,32.13-48.86,86-91.74,88.8-147.6,1.95-38.36-23.94-76.78-64-94.94-41.95-19-100.13-16.64-131.07,14.86C642.76,111.8,586.75,124.28,538.73,122.66Z"/><ellipse class="cls-3" cx="143.88" cy="603.15" rx="61.51" ry="11.83"/><ellipse class="cls-4" cx="142.84" cy="598.13" rx="7.16" ry="9.38"/><ellipse class="cls-4" cx="142.84" cy="586.67" rx="7.16" ry="9.38"/><ellipse class="cls-4" cx="142.84" cy="575.21" rx="7.16" ry="9.38"/><ellipse class="cls-4" cx="142.84" cy="563.76" rx="7.16" ry="9.38"/><ellipse class="cls-4" cx="142.84" cy="552.3" rx="7.16" ry="9.38"/><ellipse class="cls-4" cx="142.84" cy="540.84" rx="7.16" ry="9.38"/><ellipse class="cls-4" cx="142.84" cy="529.38" rx="7.16" ry="9.38"/><path class="cls-3" d="M169.65,451a34,34,0,0,0,2.67-3.92L153.5,444l20.35.15a34.34,34.34,0,0,0,.66-27.18l-27.3,14.17,25.2-18.48A34.3,34.3,0,1,0,115.75,451a34.62,34.62,0,0,0-3.92,6.26l24.43,12.69-26-8.74a34.29,34.29,0,0,0,5.53,32.21,34.3,34.3,0,1,0,53.92,0,34.3,34.3,0,0,0,0-42.42Z"/><path class="cls-5" d="M108.42,472.16a34.16,34.16,0,0,0,7.34,21.21,34.3,34.3,0,1,0,53.92,0C174.26,487.55,108.42,468.33,108.42,472.16Z"/><path class="cls-6" d="M441.87,460.4c.52,6.72,3.11,13.68,8.55,17.64s14.11,3.89,18.27-1.44a20.43,20.43,0,0,0,3-6.6c3.5-11.07,6-23.19,2.15-34.15-8.66-.56-18.7-4.64-25.2,2.52C443.42,444.21,441.27,452.63,441.87,460.4Z"/><path class="cls-7" d="M482.08,392.66c-1.15,9.77-3.11,19.5-2.91,29.34.08,3.8.48,7.56.49,11.38a56.07,56.07,0,0,1-7.56,28.2,9.46,9.46,0,0,1-2.07,2.67c-2,1.61-5,1.48-7.23.24a14.22,14.22,0,0,1-5.13-5.57c-6.26-10.72-6.44-23.75-8.91-35.91-1.9-9.3-5.23-18.32-6.43-27.73-.78-6.06-.66-12.23-1.91-18.21-.38-1.81-1.44-4.52-2.13-7.18-.64-2.38-1-4.71-.34-6.32,1.34-3.29,5.71-2,8.56-1.81a197.09,197.09,0,0,0,30.13-.08,2.59,2.59,0,0,1,3.49,1.81,40.77,40.77,0,0,1,1.82,6.72C483.34,377.54,483,385.21,482.08,392.66Z"/><g class="cls-8"><path d="M478.22,361.69a7.39,7.39,0,0,0-1.55,0c-4.81.39-9.62.58-14.43.6Q470.23,362.31,478.22,361.69Z"/><path d="M464.51,464.49a14.22,14.22,0,0,1-5.13-5.57c-6.26-10.72-6.44-23.75-8.91-35.91-1.9-9.3-5.23-18.32-6.43-27.73-.78-6.06-.66-12.23-1.91-18.21-.38-1.81-1.44-4.52-2.13-7.18-.64-2.38-1-4.71-.34-6.32a3.58,3.58,0,0,1,3.36-2.18c-2.13-.14-4.2.11-5,2.18-.66,1.6-.3,3.94.34,6.32.7,2.66,1.76,5.38,2.13,7.18,1.24,6,1.13,12.16,1.91,18.21,1.2,9.42,4.53,18.43,6.43,27.73,2.48,12.16,2.65,25.2,8.91,35.91a14.22,14.22,0,0,0,5.13,5.57,7.46,7.46,0,0,0,4.4.89A7.75,7.75,0,0,1,464.51,464.49Z"/></g><path class="cls-7" d="M513.85,444.19c-5,10.08-4.2,24.36-4.2,24.36.84,33.61-12.6,104.18-12.6,104.18H485.28s-1.68-78.13,0-84.86-.84-30.25-3.36-63c-1.87-24.36,3.23-46.44,6-56.13.94-3.36,1.6-5.2,1.6-5.2s19.32-28.57,30.25-15.12c2.52,3.13,3.86,9.44,4.32,17.4C525.54,392.09,517.71,436.45,513.85,444.19Z"/><path class="cls-5" d="M524,365.81c-.46-8-1.78-14.28-4.32-17.4a8.65,8.65,0,0,0-8.25-3.5,9,9,0,0,1,5.73,3.5c2.52,3.13,3.86,9.44,4.32,17.4,1.5,26.28-6.33,70.64-10.2,78.38-5,10.08-4.2,24.36-4.2,24.36.84,33.61-12.6,104.18-12.6,104.18H497s13.44-70.57,12.6-104.18c0,0-.84-14.28,4.2-24.36C517.71,436.45,525.54,392.09,524,365.81Z"/><path class="cls-6" d="M479.17,569.67a10.92,10.92,0,0,0-2.4,2.62c-1.5,2.84.63,6.23,2.92,8.49s5,4.68,5,7.9c0,2.59-2,4.81-4.15,6.18-1.18.74-2.65,1.68-2.41,3.07a2.89,2.89,0,0,0,.45,1c1.88,2.88,5.22,4.57,8.59,5.21a38.77,38.77,0,0,0,10.3.08,2.08,2.08,0,0,0,1.41-.49,1.92,1.92,0,0,0,.38-1.16c.17-1.78.06-3.66.84-5.27,1.09-2.19,3.6-3.31,5-5.28,2-2.69,1.74-6.43,1-9.7-1.68-7.12-5.42-15.23-11-20.16C488.61,556.5,483.51,565.57,479.17,569.67Z"/><path class="cls-4" d="M504.62,146.18c4.69-7,3.47-16.8-1.32-23.78S490.82,111,482.88,108.22c-10.7-3.81-22.51-5.12-33.51-2.25-8.75,2.28-16.62,7-24.87,10.72a106.94,106.94,0,0,1-46.44,9.24c-17.74-.5-37.17-5-52,4.65-27.24,17.72-15.12,65.94-40.89,85.7-6.95,5.33-15.69,7.65-23.42,11.76s-15.06,11.26-14.87,20c.08,4.2,1.93,8.21,4.2,11.76,9.66,15.32,27.73,24.79,45.81,24.62s35.74-9.8,46.17-24.6c2.61-3.71,4.91-7.83,8.7-10.3,7.56-5,17.53-1.49,26.55-.75,20.09,1.64,40.18-13.44,44.18-33.23,1.68-8.44,1.39-18.53,8.18-23.84,5.49-4.28,13.21-3.36,20.16-4.09,12.72-1.32,22.76-9.24,29.67-19.59,3.17-4.75,3.54-10.42,7.86-14.16C493,149.77,500.17,152.8,504.62,146.18Z"/><g class="cls-8"><path d="M361.26,127.55a106.51,106.51,0,0,0,22-1.68c-2,.06-4,.06-6,0-13.92-.39-28.88-3.26-41.87.2C343.92,126.15,352.78,127.31,361.26,127.55Z"/><path d="M334.89,251.2c-3.79,2.47-6.09,6.6-8.7,10.3A59,59,0,0,1,293,284.36c1,0,2,.07,3,.06,18.11-.18,35.74-9.8,46.17-24.6,2.61-3.71,4.91-7.83,8.7-10.3l.66-.4C345.58,248.3,339.76,248,334.89,251.2Z"/><path d="M502.46,122.38C497.68,115.44,490,111,482,108.19c-10.7-3.81-22.51-5.12-33.51-2.25l-.74.2a64.31,64.31,0,0,1,18.28,3.73c7.94,2.83,15.64,7.25,20.42,14.19s6,16.8,1.32,23.78c-4.45,6.65-11.65,3.61-16.37,7.7-4.32,3.74-4.69,9.41-7.86,14.16-5.94,8.88-14.21,16-24.5,18.65,3.54-.42,7.27-.37,10.8-.74,12.72-1.32,22.76-9.24,29.67-19.59,3.17-4.75,3.54-10.42,7.86-14.16,4.71-4.09,11.91-1.06,16.37-7.7C508.47,139.15,507.25,129.32,502.46,122.38Z"/><path d="M433.93,189.29c-6.91.72-14.64-.18-20.16,4.09-6.8,5.3-6.47,15.39-8.18,23.84-2.95,14.76-14.93,26.94-29.15,31.46l1,.09c20.09,1.64,40.18-13.44,44.18-33.23,1.68-8.44,1.39-18.53,8.18-23.84a15.17,15.17,0,0,1,5.22-2.52C434.64,189.2,434.29,189.26,433.93,189.29Z"/></g><path class="cls-7" d="M636.93,116.1S616.77,156.43,610,171.56,542,209.36,533.59,210.2a10.82,10.82,0,0,0-6,2.89c-4.75,4.2-7.44,11.39-7.44,11.39s3.36,22.68-.84,60.49c-.08.73-.16,1.46-.23,2.17-3.66,36,4,44.46,4,44.46s-81.5,31.09-79-9.24c.79-12.69.67-22-.11-29.72a124.82,124.82,0,0,0-4.82-23.41c-2-7-4.37-14.6-6.83-25A109.67,109.67,0,0,0,427.68,229l-.17-.45c-4.2-10.43-8.4-13.8-10.8-14.89a36.32,36.32,0,0,1-6.45-3.63A339.37,339.37,0,0,1,371,177C350.83,156.85,330.67,109,330.67,109s-5.88-27.73,7.56-50.41,7.56,44.53,7.56,44.53S370.16,135.85,376,151c3,7.78,7.83,11.76,11.76,13.83a139.47,139.47,0,0,1,18.6,11.63,108.62,108.62,0,0,0,12.51,8.17c9.39,5,20.64,10.73,30,12.22a28.31,28.31,0,0,0,4.43.38,4.59,4.59,0,0,0,3.7-1.68c2.52-3,2.46-9.35,1.88-14.6a74.2,74.2,0,0,0-1.38-8.09S484.86,155.6,484,176.6a23.47,23.47,0,0,0,.64,6.91,12,12,0,0,0,8.14,8.91,20.16,20.16,0,0,0,10.08.33,9.86,9.86,0,0,0,3-1c2.52-1.68,27.73-9.24,35.29-10.08s45.37-19.32,45.37-19.32l41.17-57.13s-.84-33.61,16-47S636.93,116.1,636.93,116.1Z"/><g class="cls-8"><path d="M519.08,282.1a167.52,167.52,0,0,0-1,20.33c.08-4.44.38-9.5,1-15.29.07-.71.14-1.44.23-2.17a329.46,329.46,0,0,0,2.1-39,337.5,337.5,0,0,1-2.1,33.93C519.26,280.67,519.15,281.4,519.08,282.1Z"/><path d="M458.43,172.29c-.56.33-.84.53-.84.53a72,72,0,0,1,1.61,10.92A51.53,51.53,0,0,0,458.43,172.29Z"/><path d="M346.19,98.52c.41-5.88,1-16.43.91-25.8C347,85.25,345.83,98,345.83,98Z"/><path d="M444.17,321.38a5.52,5.52,0,0,1-.06,1c-2.52,40.33,79,9.24,79,9.24a13.68,13.68,0,0,1-2.13-4.27C508.69,331.71,447,352,444.17,321.38Z"/><path d="M636.93,111.06S616.77,151.39,610,166.51,542,204.32,533.59,205.16a10.82,10.82,0,0,0-6,2.89c-4.75,4.2-7.44,11.39-7.44,11.39s.2,1.37.45,4c.94-2.16,3.36-7.12,7-10.33a10.82,10.82,0,0,1,6-2.89c8.4-.84,69.73-23.52,76.45-38.65s26.89-55.45,26.89-55.45,14.21-43.14,12.64-56C648.28,76.59,636.93,111.06,636.93,111.06Z"/><path d="M444,287.6a124.82,124.82,0,0,0-4.82-23.41c-2-7-4.37-14.6-6.83-25a109.67,109.67,0,0,0-4.67-15.25l-.17-.45c-4.2-10.43-8.4-13.8-10.8-14.89a36.32,36.32,0,0,1-6.45-3.63A339.37,339.37,0,0,1,371,172c-20.16-20.16-40.33-68.05-40.33-68.05a76,76,0,0,1-1.24-12.25A81,81,0,0,0,330.67,109S350.83,156.85,371,177a339.37,339.37,0,0,0,39.26,33,36.32,36.32,0,0,0,6.5,3.63c2.39,1.09,6.59,4.46,10.8,14.89l.17.45a109.67,109.67,0,0,1,4.65,15.25c2.46,10.4,4.84,18,6.83,25A124.82,124.82,0,0,1,444,292.64c.35,3.51.56,7.33.62,11.64A146.34,146.34,0,0,0,444,287.6Z"/></g><path class="cls-3" d="M527.22,251.1a50,50,0,0,0-3.36,6.62c-1.27,3.53-1.28,7.37-1.51,11.11A89.17,89.17,0,0,1,520,284.39a17.2,17.2,0,0,1-.84,2.76,7.29,7.29,0,0,1-1,1.68,7.17,7.17,0,0,1-1.56,1.42,18.33,18.33,0,0,1-2.85,1.55c-11.7,5.46-24.45,10.28-37.21,8.4A54.15,54.15,0,0,1,461,295c-4.62-2.24-9.85-4.91-14.64-3h0a7.37,7.37,0,0,1-2.34.73,2.23,2.23,0,0,1-.47,0c-1.58-.3-1.58-5.63-1.94-7.2-1.38-6-1.59-10.92-2.41-16.16a53,53,0,0,0-2-8.54c-3.36-10.17-4.38-21-4.38-31.66,0-.53-3.78,0-5-.05-.32,0-.5-.05-.42-.16a1.68,1.68,0,0,1,.25-.29,3.84,3.84,0,0,1,1.5-.75l1-.29c5.19-1.47,10.92-2.08,14.8-5.74,4-3.77,5-9.8,4.86-15.31-.05-1.77-.92-6.07-.77-9.65a28.31,28.31,0,0,0,4.43.38,4.59,4.59,0,0,0,3.7-1.68,66.37,66.37,0,0,1,3.63,8.4c1.43,3.51,2.52,7.21,4.61,10.38a17.59,17.59,0,0,0,15.73,8.06c6.17-.52,11.91-5.26,13-11.34,1-5.34-1.28-13-1.23-18.56a20.16,20.16,0,0,0,10.08.33,9.11,9.11,0,0,1,.36,1.05c1.89,6.49,4.41,13.93,10.75,16.23,4.1,1.48,8.95.37,12.74,2.52a8.18,8.18,0,0,1,.84.55,9.3,9.3,0,0,1,2.23,2.36,19,19,0,0,1,2.7,8.47A47,47,0,0,1,527.22,251.1Z"/><path class="cls-5" d="M484.66,183.5a28.63,28.63,0,0,1-25.73-2.6,74.2,74.2,0,0,0-1.38-8.09s27.31-17.22,26.47,3.78A23.47,23.47,0,0,0,484.66,183.5Z"/><circle class="cls-7" cx="474.35" cy="155.17" r="28.57"/><path class="cls-9" d="M424.37,226.17s55.45-35.29,227.68,2.52,272.21,7.56,272.21,7.56v39.49s-193.24,21-267.17,0-179.18-33.12-216-.6Z"/><path class="cls-5" d="M424.37,226.17s55.45-35.29,227.68,2.52,272.21,7.56,272.21,7.56v39.49s-193.24,21-267.17,0-179.18-33.12-216-.6Z"/><path class="cls-10" d="M426.05,227.85s53.77-35.29,226,2.52,270.53,7.56,270.53,7.56l.84,36.13s-191.56,21-265.49,0-178.34-35.64-215.2-3.12Z"/><path class="cls-9" d="M405.84,282.12s-55.45,35.29-227.68-2.52S14.32,272,14.32,272V232.55s84.86-21,158.79,0,179.18,33.12,216,.6Z"/><path class="cls-5" d="M405.84,282.12s-55.45,35.29-227.68-2.52S14.32,272,14.32,272V232.55s84.86-21,158.79,0,179.18,33.12,216,.6Z"/><path class="cls-10" d="M404.16,280.44s-53.77,35.29-226-2.52S16,270.36,16,270.36l-.84-36.13s83.18-21,157.11,0,178.34,35.64,215.2,3.12Z"/><path class="cls-4" d="M449.79,159.9c-.84-5.24-2.13-11.85,2.25-14.85a9.33,9.33,0,0,1,5.2-1.34c9.08-.09,17.76,6.23,26.67,4.39a15,15,0,0,0,5.88-26.78c-3.5-2.6-7.93-3.55-12.22-4.43-11.27-2.32-23-4.63-34.15-1.68s-21.29,12.92-20.4,24.36c.42,5.48,3.21,10.45,6.12,15.12,2.22,3.55,10.85,20.16,15,20.42C450.11,175.46,450.37,163.33,449.79,159.9Z"/><path class="cls-3" d="M520.57,317.32s-58,14.28-77.29,0c0,0-8.4,32.77-5.88,49.57,0,0,41.17,2.52,45.37,5,0,0,.84-6.72,5-3.36,0,0,14.28-16.8,40.33-1.68C528.13,366.89,533.17,327.41,520.57,317.32Z"/><path class="cls-5" d="M489.8,121.32a16.67,16.67,0,0,0-1.87-1.18,15,15,0,0,1-8.23,24.59c-8.91,1.85-17.58-4.48-26.67-4.39a9.33,9.33,0,0,0-5.2,1.34c-4.39,3-3.1,9.6-2.26,14.85.55,3.43.33,15.56-5.57,15.23h-.1c1.62,2,3.13,3.31,4.3,3.36,5.88.33,6.12-11.76,5.57-15.23-.84-5.24-2.13-11.85,2.26-14.85a9.33,9.33,0,0,1,5.2-1.34c9.08-.09,17.76,6.23,26.67,4.39a15,15,0,0,0,5.88-26.78Z"/><g class="cls-8"><path class="cls-11" d="M72.55,81.41S9.73,55,1.49,102.64c0,0-4.29,7.42,1.68,13.55,0,0,1.29-3.29,7.36.12a31.59,31.59,0,0,0,6.86,2.78,15.43,15.43,0,0,0,9.76-.52h0s20.66-1.12,38-28.15c0,0,7.44-4.6,7.82-6.33l-12.45.84s.95,9.12-4.2,14.59c0,0,4.58-14.14,2.38-14.54-.45-.08-6.58.73-6.58.73s1.59,15.85-6.72,24c0,0,7.71-16.12,4.35-23.76L40.6,87.77s2.52,16.67-6.57,26.37c0,0,7.47-17.14,4.59-25.85l-8.8,3s2.13,16.32-5.48,24.36c0,0,6.64-20.68,3.51-23.52,0,0-7.91,3.21-9.61,5,0,0,1.26,11.76-3.58,16,0,0,3-14.28,1.5-14.87,0,0-9.2,6.92-12,12.9,0,0,3.5-9.12,10.84-14.28,0,0-6.17-1-10.92,1.54,0,0,3.18-6.06,13.15-3.18,0,0,7.39-5.11,8.86-5,0,0-9.43-4.2-16.24-3.69,0,0,7.3-4.2,18.55,2.82l8.77-3.18S25,79.86,18.89,79.89c0,0,8.12-3.13,20.57,5.6l9-1.84S38.36,77.47,31.56,76c0,0,8.16-1.29,19.47,7.19l6.15-.52s-7.44-4.38-9.7-5.44-2.15-1.76-2.15-1.76a29.32,29.32,0,0,1,14.43,6.94S72.49,82.2,72.55,81.41Z"/></g><g class="cls-8"><path class="cls-11" d="M70.23,34.06S47.93-17.41,15.93,6.2c0,0-6.78,2-6.72,9,0,0,2.64-1.22,4.3,4.26A26.37,26.37,0,0,0,16,25a12.6,12.6,0,0,0,6,5.23h0S35,41.35,60.72,35.19c0,0,7,1.51,8.26.7l-7.87-6.6s-4.62,6-10.82,6.25c0,0,10.78-5.8,9.7-7.29-.22-.3-4.32-3.31-4.32-3.31S47.57,35.25,38,35.41c0,0,13.77-5.19,16.12-11.64l-6.46-4.2s-8,11.33-18.93,11.92c0,0,14.2-5.88,17.45-12.74L39.28,15.5s-8,10.92-17.11,11.33c0,0,15.72-8.5,15.48-12,0,0-6.53-2.6-8.59-2.45,0,0-5.94,7.69-11.24,7.47,0,0,9.91-6.8,9.36-8,0,0-9.41-1.13-14.48.84,0,0,7.28-3.43,14.58-2.3,0,0-3.07-4.14-7.34-5.29,0,0,5.34-1.79,9.63,5.6,0,0,7.29,1.17,8.14,2,0,0-3.19-7.89-7.56-11.44,0,0,6.72,1.68,9.41,12.24l7,3.12S42.89,6,39.2,2.59c0,0,6.61,2.76,9,15l6.38,4s-2.48-9.41-5.69-14.1c0,0,5.58,3.87,7.48,15.36l3.95,3.19s-1.93-6.84-2.66-8.75-.27-2.27-.27-2.27A24.21,24.21,0,0,1,62,27.43S69.77,34.5,70.23,34.06Z"/></g></g></g></g></svg>