<svg xmlns="http://www.w3.org/2000/svg" xmlns:xlink="http://www.w3.org/1999/xlink" viewBox="0 0 667.23 507.65"><defs><style>.cls-1{fill:url(#linear-gradient);}.cls-2{fill:#132a35;}.cls-3{fill:#603813;opacity:0.2;}.cls-13,.cls-3,.cls-4,.cls-6{isolation:isolate;}.cls-11,.cls-4{opacity:0.1;}.cls-5{fill:#92b0ee;}.cls-6{opacity:0.15;}.cls-7{fill:#0d1f25;}.cls-8{fill:#f9ac1b;}.cls-9{fill:#cea28b;}.cls-10,.cls-13{fill:#e36329;}.cls-12{fill:#c95223;}.cls-13{opacity:0.1;}</style><linearGradient id="linear-gradient" x1="372.29" y1="-1172.89" x2="372.29" y2="-665.39" gradientTransform="matrix(1, 0, 0, -1, -39.48, -665.39)" gradientUnits="userSpaceOnUse"><stop offset="0" stop-color="gray" stop-opacity="0.25"/><stop offset="0.54" stop-color="gray" stop-opacity="0.12"/><stop offset="1" stop-color="gray" stop-opacity="0.1"/></linearGradient></defs><title>expert_illo</title><g id="Layer_2" data-name="Layer 2"><g id="contributor"><g id="Expert"><path class="cls-1" d="M661.6,423.52l-7.3-23.22s-6.11-16.48-5.13-25.32-2.05-18.49-2.05-18.49l6-31.24s.33-3.4.31-7.89c0-7.48-1.06-18-6.24-20.7-8.28-4.37-25.26-41.3-28.82-41.3s-15-2.38-15-6.39a2.38,2.38,0,0,0,0-.44v-.14a2,2,0,0,0-.09-.32l-.05-.16-.16-.36-.05-.1a9.74,9.74,0,0,0-1.65-2.16c15.45-2.95,30.83-6.18,46.1-10h-.57l.57-.14a51.71,51.71,0,0,1-6.07-.42l-.45.1c-22.46-3.06-42.64-20.62-48.14-42.87-6.09-24.63,4.56-50.33,4.09-75.71a87,87,0,0,0-13.78-45.23c-1.17-1.82-2.41-3.58-3.7-5.29a34.66,34.66,0,0,0,13.35-50.92c-.39-.57-.8-1.11-1.22-1.65a34.76,34.76,0,0,1-5.67,43A34.45,34.45,0,0,0,525.51,23l-.32.6c-.74-.33-1.48-.66-2.22-1A34.44,34.44,0,0,1,553.2.06c-.68,0-1.36-.06-2.05-.06a34.42,34.42,0,0,0-31.73,21.22c-10.33-3.79-21.1-5.35-31.7-2.66a34.84,34.84,0,0,0-5.75,2l.47-.37a25.64,25.64,0,0,0-7.18,4.56c-3.17,2.93-5.41,6.72-8.1,10.12a42.73,42.73,0,0,1-9.62,8.74c.3-.15.6-.32.91-.47-12.22,8.65-28.83,11.14-42.81,5.57-3.92-1.57-7.71-3.71-11.86-4.29a17.92,17.92,0,0,0-9.39,1.37c.13-.1.25-.21.38-.31a24.55,24.55,0,0,0-9.85,7.39c-4.56,5.63-6.85,12.77-8.48,19.8a64.5,64.5,0,0,0-1.82,15.25c.06,6.59,1.54,12.94,5.47,18.1,6.09,7.9,14.41,10,23.1,11.46-.26.91-.5,1.75-.72,2.65a78.45,78.45,0,0,0,54.16,94.56l1.69,2.86.55.13c4,6.83,8.47,14.5,12.57,21.89.22.39.43.78.65,1.17l-7.76,4h0c-2,1-7.09,3.79-9.89,6.49a6.58,6.58,0,0,0-1.82,2.58c-1.19,4-7.5,14.3-11.86,17.08s-7.9,16.28-7.5,23.42-2.37,6.39-9.48,6.77,0,10.72,0,10.72l.18.69c-.33.57-.7,1.18-1.11,1.82-1.82,2.8-4.22,5.9-6,5.74-3.17-.3-5.14,7.44-4.93,8.63s-5.53,10.72-7.7,11.71-11.45,2.89-8.88,11.78L384.09,363.6,375,372.34s-13-7.35-34.15,15.51a18.87,18.87,0,0,1,7,.66l-.6.29c-5.56,2.64-15.2,7.13-22.32,10L287,400V371.73s-3.36-7.94-7.3,0l-1,28.57L196.2,403l15.45-16.42h0l.2-.22a13.53,13.53,0,0,0,3-13.38L150.42,170.29h0l-.45-1.42a11.09,11.09,0,0,0-9.08-7.64L51.34,149.13l-.62-.08-8.23,2.23a8.06,8.06,0,0,0-5.66,9.9l0,.13c2.12,7.3,5.59,19.21,10,34.18H34.54L44,277.3l5.77,31.47q2.22,12,5.17,23.94c4.75,19.16,14.16,60,14.37,83.71L0,492v15.35H442.82a.73.73,0,0,0,.07.15H658.64s-2.36-4.17,2.74-10.13,2.57-29.58,2.57-29.58-2.86-3.78.64-12.11S661.6,423.52,661.6,423.52ZM111.38,405.69l-11.77.38L88.66,334.86C96.77,360.88,104.64,385.64,111.38,405.69Zm303,43.27-7.63-15.58a8.49,8.49,0,0,0,5-1.32c4.93-3.58,7.89-11.91,7.89-11.91l13.24-15.74,1.09-1.31c2.68,7.49,5.84,13.4,8.36,16.26,6.31,7.15,7.11,27.79,9,35.34s.43,4.37,0,8.74a11.41,11.41,0,0,0,.26,3.18C442.88,457.24,430.47,448.72,414.39,449Z"/><polygon class="cls-2" points="4.46 492.31 82.32 407.92 391.55 397.97 445.53 507.5 4.46 507.5 4.46 492.31"/><polygon class="cls-3" points="4.46 492.31 82.32 407.92 391.55 397.97 445.53 507.5 4.46 507.5 4.46 492.31"/><path d="M407.27,485.26v2.92a5.69,5.69,0,0,1-5.69,5.69H235.36c-3.15,0,0-6.28,0-6.28l-1.88-41.17a6.8,6.8,0,0,1,5.13-6.9c9.25-2.34,15.62,1.41,15.62,1.41l103-2.62a33,33,0,0,1,6.39.3,28,28,0,0,1,18.87,11.18l23.66,32.08A5.69,5.69,0,0,1,407.27,485.26Z"/><path class="cls-4" d="M407.27,488.18h0a5.69,5.69,0,0,1-5.69,5.69H235.36c-3.15,0,0-6.28,0-6.28s9.18-4.45,22.8-3.65l121.32-2.63s14.33.33,22.71,1.24A5.68,5.68,0,0,1,407.27,488.18Z"/><polygon class="cls-5" points="360.1 445.39 255.79 445.39 258.68 477.11 379.49 475.01 360.1 445.39"/><path class="cls-2" d="M183.21,467.67v11L73.94,483.11s-25-1.71-28-17.06a14.32,14.32,0,0,1,.09-4.83c1.1-6.47,6.65-17.76,31.1-23l30.1-3.09H174.3S183,443.82,183.21,467.67Z"/><path class="cls-4" d="M183.21,468v10.66L73.94,483.11s-25-1.71-28-17.06a14.32,14.32,0,0,1,.09-4.83s15.11,14.28,35.58,12.19l96.18-4.19A54.08,54.08,0,0,0,183.21,468Z"/><ellipse class="cls-4" cx="99.32" cy="451.17" rx="33.6" ry="5.77" transform="translate(-23.09 5.71) rotate(-2.95)"/><path class="cls-2" d="M110,448.45l-17.68,8.74L73.5,452.74l-.09-30.66c1.19-22.38-9.12-67.16-14.22-87.46Q56.25,322.85,54,310.9l-5.78-31.15L38.84,198.8h22.4l13.17,18.86Z"/><path class="cls-2" d="M110,448.45l-17.68,8.74L81,391.71c.22-11.16-13.76-64.12-14.68-66.3-11.15-26.61-20.7-126.58-20.7-126.58H61.25l13.16,18.83Z"/><path class="cls-6" d="M110,448.45l-17.68,8.74L81,391.71c.22-11.16-13.76-64.12-14.68-66.3-11.15-26.61-20.7-126.58-20.7-126.58H61.25l13.16,18.83Z"/><path class="cls-2" d="M215.38,387.72l-60.2,63.44-7.06.5-8.6.62a9.7,9.7,0,0,1-9.56-5.74C111.71,405.49,53.38,207,41.1,165a8,8,0,0,1,5.41-9.89l.18-.05,8.21-2.21.61.07,87.71,11.77a13.36,13.36,0,0,1,10.95,9.18l64.2,200.62A13.35,13.35,0,0,1,215.38,387.72Z"/><path class="cls-4" d="M215.38,387.72l-60.2,63.44-7.06.5-8.6.62a9.7,9.7,0,0,1-9.56-5.74C111.71,405.49,53.38,207,41.1,165a8,8,0,0,1,5.41-9.89l.18-.05,8.21-2.21.61.07,87.71,11.77a13.36,13.36,0,0,1,10.95,9.18l64.2,200.62A13.35,13.35,0,0,1,215.38,387.72Z"/><path class="cls-2" d="M215.17,387.93l-60,63.25-7.06.5-90-288.25a27.5,27.5,0,0,1-2.53-10.54l89.18,12a11,11,0,0,1,9,7.57l64.56,201.73A13.87,13.87,0,0,1,215.17,387.93Z"/><path class="cls-5" d="M210.77,377.3a13.37,13.37,0,0,1-2.43,3l-59.06,54.91L68.7,168.14l77.38,7.66a13.56,13.56,0,0,1,11.67,9.61l54.36,181A13.62,13.62,0,0,1,210.77,377.3Z"/><path class="cls-4" d="M210.77,377.3,146.08,175.81a13.56,13.56,0,0,1,11.67,9.61l54.36,181A13.62,13.62,0,0,1,210.77,377.3Z"/><circle class="cls-7" cx="557.65" cy="44.58" r="34.25"/><path class="cls-8" d="M523,39.5A34.25,34.25,0,0,1,555.25,5.3c-.68,0-1.35-.06-2-.06a34.26,34.26,0,0,0-1.12,68.51h1.12c.68,0,1.36,0,2-.06A34.25,34.25,0,0,1,523,39.5Z"/><path class="cls-4" d="M527.47,44.58A34.25,34.25,0,0,1,559.7,10.39c-.68,0-1.36-.06-2-.06a34.26,34.26,0,0,0,0,68.51,19,19,0,0,0,2-.07A34.24,34.24,0,0,1,527.47,44.58Z"/><path class="cls-9" d="M381.35,428.64a92.89,92.89,0,0,1-9.87,4.5c-8.81,3.47-22.24,7.44-34.75,5.92-21-2.55-33.6,4.32-33.6,4.32l-4.72-35s15.51-4.56,21.81-5.7c4.73-.91,21.77-8.77,30-12.62,2.74-1.28,4.44-2.12,4.44-2.12h15.73Z"/><path class="cls-4" d="M381.35,428.64a92.89,92.89,0,0,1-9.87,4.5c-1.07-31.15-13-40.4-21.3-43.06,2.74-1.28,4.44-2.12,4.44-2.12h15.73Z"/><path class="cls-10" d="M439.53,324.08v76.62l-4.11,4.87-13.18,15.6s-2.95,8.21-7.86,11.79-16.13-1.18-16.13-1.18l-3.15,5.11s-7.07,1.38-10.41,0-11.6,3.93-11.6,3.93c1.19-56.21-29.28-51.68-29.28-51.68,21-22.6,34-15.33,34-15.33l9-8.65,11.2-11.35c-2.55-8.78,6.68-10.66,8.84-11.65s7.86-10.42,7.67-11.59,1.76-8.85,4.91-8.55c1.75.16,4.15-2.91,6-5.67,1.44-2.23,2.5-4.25,2.5-4.25Z"/><path class="cls-10" d="M466.74,247.49l23.17-11.86-1.31,13.89,4.56,14s-4.19,10.81-4.71,12S478,301.28,478,301.28l-8-10.09Z"/><polyline class="cls-4" points="469.99 291.19 466.74 247.49 489.91 235.64"/><path class="cls-9" d="M566.29,234.46s-7.7,11.07-18.24,25.19c-24.54,32.84-64.46,82.1-58.38,46.36.2-1.17.36-2.34.49-3.51-1.5,1-4.93.13-8.67-1.65l-.26-.12a44.61,44.61,0,0,1-5.33-3.08c-.19-.12-.37-.25-.56-.37-4.15-2.89-7.47-6.28-7.3-8.61,2.95-51.3,14.89-26.84,18.24-21.14a3.7,3.7,0,0,0,.77,1.07q-.22-.6-.49-1.26c-2.35-5.77-6.85-14.4-12-23.63v-.09l-.68-1.22c-4.27-7.62-8.89-15.58-13.05-22.57l-1.12-1.88c-6.57-11-11.68-19.24-11.68-19.24s29.84-27.29,55-43.88c21-13.86,38.75-20.25,33.07,3-3.65,14.94-2.58,27.72.78,38.31.12.39.25.78.38,1.17a61.84,61.84,0,0,0,2.34,5.94A67.44,67.44,0,0,0,543.7,211,75.15,75.15,0,0,0,566.29,234.46Z"/><path class="cls-6" d="M519.91,193c-14.15,15.37-17.16,30.1-39.7,30.1a77.54,77.54,0,0,1-19.44-2.46C453.67,208.73,448,199.56,448,199.56s100.54-91.94,88.05-40.88C532.24,174.1,516.25,182.18,519.91,193Z"/><path class="cls-9" d="M557.65,143.27A77.44,77.44,0,1,1,480.2,65.82h0a77.1,77.1,0,0,1,77.44,76.76Q557.65,142.93,557.65,143.27Z"/><path class="cls-4" d="M478.44,277.3s1.38,22,15.33,20.24,3.34,46.78,3.34,46.78l-15.51,14.15-16.73,5.14s-14.74-4.32-14.54-5.12,5.89-46.77,5.89-46.77l8.65-24.57Z"/><path class="cls-2" d="M478.44,278.87s1.38,22,15.33,20.25,3.34,46.78,3.34,46.78L481.61,360l-16.71,5.11s-14.74-4.32-14.54-5.11,5.89-46.78,5.89-46.78l8.65-24.57Z"/><path class="cls-4" d="M439.53,324.08v76.62l-4.11,4.87c-4.24-11.26-7.47-26.52-5.47-40.24,2.6-18.19-2.58-41.47-4.46-49,1.44-2.23,2.5-4.25,2.5-4.25Z"/><path class="cls-4" d="M480.21,281.24a44.94,44.94,0,0,1-3.33,12.53c-.51,1.21-1,2.39-1.55,3.49-4.15-2.89-7.47-6.28-7.3-8.61,2.95-51.3,14.89-26.84,18.24-21.14C484.64,268.75,481,272.4,480.21,281.24Z"/><path class="cls-4" d="M486.53,267.32c-2.46-6-7.3-15.23-12.71-24.94l.68-.35L487,267A2.66,2.66,0,0,0,486.53,267.32Z"/><path class="cls-4" d="M566.29,234.46S481,357.1,489.67,306c.2-1.17.36-2.34.49-3.51-1.53,1-5.08.09-8.92-1.77.58-3.41.91-5.75.91-5.75l9.44-26.71s5.47-21.23,4.72-25.54l.26-.17L543.51,211h0A75.15,75.15,0,0,0,566.29,234.46Z"/><path class="cls-10" d="M654.74,327.23l-6.69,34.56L628,507.62H453.89S457,482.08,457,478.14s-3.53-9.82-3.14-14.15,1.9-1.19,0-8.65-2.74-27.91-9-35-16.54-33-13.41-55-5.12-51.49-5.12-51.49-7.07-10.23,0-10.62,9.83.36,9.44-6.7,3.14-20.42,7.46-23.18,10.62-13,11.79-16.9a6.6,6.6,0,0,1,1.82-2.56c3.54-3.39,10.74-6.87,10.74-6.87l6.88-3.44v.09L487,268.57s-5.84,2.84-6.81,14.23a44.85,44.85,0,0,1-3.33,12.53c-.33.78-.66,1.56-1,2.3-1,2.23-2,4.2-2.89,5.77h0c-1.29,2.33-2.21,3.76-2.21,3.76s-.34,2.66-.85,6.39h0c-1,7.64-2.82,19.76-3.87,22.66-.91,2.57-2.74,7-3.75,10.95-.64,2.47-1,4.76-.67,6.26a1.15,1.15,0,0,0,.09.35c1.18,3.65,7.07-12,7.07-12s4.32-13.36,6.29-13.36c1.51,0,4.89-18.86,6.39-27.57.44-2.6.7-4.29.7-4.29l9.44-26.72s1.3-5,2.55-10.72c1.31-6,2.56-12.62,2.16-14.83l.26-.17,46.94-31.52h0l.72-.48h-.07c-.33,0-1.28-.58-3.09-4.85-.47-1.09-1-2.4-1.56-4,0,0,15-6,20.37-1.61a4.77,4.77,0,0,1,.91,1,3.82,3.82,0,0,1,.39.65c3.54,7.3,5.11,12.77,8.65,17.5a15.21,15.21,0,0,0,1.24,1.43c4.28,4.48,12.77,9.72,11.34,11.15s11.79,8.21,11.79,8.21,7.82,4.47,10.27,8.21a3.74,3.74,0,0,1,.73,2c0,3.93,11.4,6.28,14.94,6.28s20.44,36.56,28.69,40.88S654.74,327.23,654.74,327.23Z"/><g class="cls-11"><path d="M478.38,268.58s-5.84,2.84-6.81,14.23a44.56,44.56,0,0,1-3.34,12.53,80.1,80.1,0,0,1-3.88,8.06h0c-1.29,2.33-2.21,3.76-2.21,3.76s-.34,2.66-.85,6.39h0c-1,7.71-2.85,19.82-3.88,22.7-.91,2.57-2.74,7-3.75,10.95-.64,2.47-1,4.76-.67,6.26a1.15,1.15,0,0,0,.09.35c1.18,3.65,7.07-12,7.07-12s4.32-13.36,6.29-13.36c.56,0,1.38-2.61,2.26-6.33.45-3,.91-6,1.21-8.47h0c.51-3.74.85-6.39.85-6.39s.52-.8,1.32-2.19c.84-4.81,1.42-8.44,1.42-8.44L483,269.87s.68-2.66,1.54-6.28l-10-19.95-6.88,3.44h0Z"/><path d="M648.84,298.92C640.63,294.6,623.69,258,620.15,258s-14.94-2.35-14.94-6.28-11-10.23-11-10.23-13.36-6.68-11.79-8.21c1.41-1.42-7.06-6.67-11.34-11.15a16.42,16.42,0,0,1-1.24-1.43c-3.54-4.73-5.11-10.23-8.65-17.5a4.31,4.31,0,0,0-.39-.66,5.31,5.31,0,0,0-.91-1c-2.41-2-6.75-1.82-10.82-1.11a6.52,6.52,0,0,1,2.17,1.11,5.31,5.31,0,0,1,.91,1,4.31,4.31,0,0,1,.39.66c3.54,7.3,5.11,12.77,8.65,17.5a16.42,16.42,0,0,0,1.25,1.4c4.28,4.48,12.77,9.72,11.34,11.15s11.79,8.21,11.79,8.21,11,6.29,11,10.23S608,258,611.51,258,632,294.56,640.2,298.89s5.9,28.28,5.9,28.28l-6.7,34.63L619.34,507.62H628l20.07-145.83,6.69-34.59S657.09,303.25,648.84,298.92Z"/></g><path class="cls-9" d="M305.56,409.11s-50-14.47-53.54,7.74,20.44,35,35.77,34.59,22-14.94,22-14.94Z"/><path class="cls-9" d="M556.27,477.38s-11.2,8.05-35,8.05-51.49,5.11-51.49,5.11-35.37-83.33-106.32-12c0,0-12.77,16.51,53.45,18.24,0,0,23.39-.78,28.5,10.81H577.69l18.09-13.55Z"/><path class="cls-2" d="M290.16,373.21s-3.34-7.85-7.3,0l-2.14,60.93,4.71,14.35,4.71-12.77Z"/><path class="cls-4" d="M560.79,202.56c-6.86,2.34-14.39,7.81-16.6,9.52-.41,0-1.82-.91-4.65-8.88C539.53,203.21,556.51,196.39,560.79,202.56Z"/><path class="cls-12" d="M487,268.58s-5.84,2.84-6.81,14.23a44.85,44.85,0,0,1-3.33,12.53L473,303.41h0L470,313.57h0l.32,20.69-8,12.93-.67,6.26-2.07,19.36L449,367.7s4.38-31.21,7.66-37.54,7.67-39.8,7.67-39.8-.2-12.29,1.38-14.45-2.74-1.77-3.15-6.28c-.24-2.68-3.23-10.13-5.63-15.74,3.54-3.39,10.74-6.87,10.74-6.87l6.88-3.44Z"/><path class="cls-13" d="M487,268.58s-5.84,2.84-6.81,14.23a44.85,44.85,0,0,1-3.33,12.53L473,303.41h0L470,313.57h0l.32,20.69-8,12.93-.67,6.26-2.07,19.36L449,367.7s4.38-31.21,7.66-37.54,7.67-39.8,7.67-39.8-.2-12.29,1.38-14.45-2.74-1.77-3.15-6.28c-.24-2.68-3.23-10.13-5.63-15.74,3.54-3.39,10.74-6.87,10.74-6.87l6.88-3.44Z"/><path class="cls-4" d="M571.07,223.71c-8.77,7.17-32.34,27.51-35,41.34-3.34,17-13.36,15.4-13.36,15.4-12.52-27.16-21.14-33.82-26.08-34.76l46.94-31.53h0l.72-.48h-.1c-.33,0-1.28-.57-3.09-4.84l18.81-5.65a4.77,4.77,0,0,1,.91,1,4.22,4.22,0,0,1,.39.65c3.54,7.3,5.11,12.77,8.65,17.5A16.5,16.5,0,0,0,571.07,223.71Z"/><path class="cls-12" d="M571.07,222.14c-8.77,7.17-32.34,27.52-35,41.35-3.34,17-13.36,15.39-13.36,15.39-12.52-27.16-21.14-33.84-26.08-34.75l46.94-31.52h0l.72-.48h-.1c-.33,0-1.28-.58-3.09-4.85l18.81-5.64a4.77,4.77,0,0,1,.91,1,3.82,3.82,0,0,1,.39.65c3.54,7.3,5.11,12.77,8.65,17.5A15.22,15.22,0,0,0,571.07,222.14Z"/><path class="cls-4" d="M517.95,359.85c.58-.19,31.21-17.53,27.69-4.34S517.95,359.85,517.95,359.85Z"/><path class="cls-4" d="M385.47,376.46s16.11,25.06,21.81,24.27S385.47,376.46,385.47,376.46Z"/><path class="cls-4" d="M405.54,367.13s1,19.46,9.44,20.83S405.54,367.13,405.54,367.13Z"/><path class="cls-4" d="M494.93,429.62s20,33.29,16.12,44.82Z"/><path class="cls-4" d="M518.14,433.55s27.07,35.58,22.39,38.52S518.14,433.55,518.14,433.55Z"/><path class="cls-4" d="M457.27,376.46s-2.78,25.29,7.66,32.65Z"/><path class="cls-4" d="M578.68,263.94s-46.35,36-38.92,73.31,14.59,40.09,14.59,40.09,2.74,14.93,7.86,21.23S566.54,409,566.54,409s4.72-2.16,6.28,8.65,9.82,18.47,9.82,18.47,2.74,8.65-4.32,13.36-5.47,9.83-5.47,9.83L544.16,476l32,31.64h82.55s-2.36-4.12,2.74-10S664,468.33,664,468.33s-2.86-3.74.64-12-3-31.84-3-31.84l-7.3-23s-6.09-16.31-5.11-25.06-2-18.31-2-18.31l-15.84-50S632.14,258.24,578.68,263.94Z"/><path class="cls-10" d="M580.25,263.94s-46.38,36-38.91,73.31,14.54,40.09,14.54,40.09,2.74,14.93,7.86,21.23S568.06,409,568.06,409s4.72-2.16,6.29,8.65,9.82,18.47,9.82,18.47,2.74,8.65-4.32,13.36-5.47,9.83-5.47,9.83L545.69,476l32,31.64h82.54s-2.35-4.12,2.74-10,2.55-29.28,2.55-29.28-2.86-3.74.64-12-3-31.84-3-31.84l-7.3-23s-6.09-16.31-5.11-25.06-2-18.31-2-18.31l-15.84-50S633.71,258.24,580.25,263.94Z"/><path class="cls-4" d="M595.78,289.29s33,11.2,41.86,16.71S624.67,284.18,595.78,289.29Z"/><path class="cls-4" d="M613.07,459.3s47,5.89,44.23,15.13S613.07,459.3,613.07,459.3Z"/><path class="cls-4" d="M603.87,469.32s34.36,11,28.28,20.07S603.87,469.32,603.87,469.32Z"/><path class="cls-4" d="M604.48,249.77c-18.75,3.65-37.58,6.77-56.43,9.88l-4.91.81c-10.36,1.71-20.79,3.42-31.3,3.37-5.12,0-10.39-.53-14.93-2.9a16.42,16.42,0,0,1-2.74-1.82c-3.18-2.55-5.47-6.27-5.42-10.3.05-7.35,7-12.45,13-16.7,8.78-6.23,17.46-14.14,20.85-24.07a27.43,27.43,0,0,0,1.32-5.75c1-8.44-2.07-16.77-5.35-24.63C515,169.12,510.14,160,503,154.77a21.51,21.51,0,0,0-9.86-4c-11-1.46-21.45,6.39-32.55,5.95-9-.39-16.68-6.18-22.11-13-3.95-5-6.45-11.6-12.4-14.55-6.44-3.2-13.76-4-20.93-5A77.44,77.44,0,1,1,536.79,196.1c.12.39.25.78.38,1.17a61.84,61.84,0,0,0,2.34,5.94s15-6,20.37-1.61a4.77,4.77,0,0,1,.91,1,3.82,3.82,0,0,1,.39.65c3.54,7.3,5.11,12.77,8.65,17.5a15.21,15.21,0,0,0,1.24,1.43c4.28,4.48,12.77,9.72,11.34,11.15s11.79,8.21,11.79,8.21S602,246,604.48,249.77Z"/><path class="cls-7" d="M382.87,110.2c-7-9-6.23-21.75-3.65-32.84,1.62-7,3.93-14,8.46-19.6s11.65-9.48,18.77-8.51c4.17.57,7.94,2.69,11.86,4.24,17.61,7,39.44,1.18,51.28-13.61,2.68-3.35,4.9-7.11,8.07-10a28.66,28.66,0,0,1,12.39-6.25c19.81-5,40.25,4.84,57.19,16.26C561.72,49.6,575.47,61,585,75.59a85.64,85.64,0,0,1,13.68,44.76c.48,25.18-10.13,50.57-4.06,75,6,24.13,29.55,42.7,54.41,42.87-34.13,8.37-68.85,14.11-103.52,19.83-10.37,1.71-20.79,3.43-31.3,3.37-5.12,0-10.4-.53-14.93-2.9s-8.21-7-8.21-12.1c.05-7.36,7-12.45,13-16.7,10.42-7.39,20.68-17.14,22.18-29.82,1-8.44-2.07-16.78-5.35-24.63-5-11.95-12.64-25.19-25.49-26.9-11-1.47-21.45,6.39-32.55,5.94-9-.39-16.68-6.18-22.11-13-3.95-5-6.45-11.6-12.39-14.55C413.69,119.51,394.33,125,382.87,110.2Z"/><path class="cls-8" d="M583.63,64.28a34.25,34.25,0,0,0,9.72-46c.42.53.82,1.08,1.21,1.63a34.26,34.26,0,1,1-55.69,39.93l-.6-.87c-.38-.57-.76-1.14-1.1-1.71A34.25,34.25,0,0,0,583.63,64.28Z"/><g class="cls-11"><path d="M475.08,36.57c2.68-3.36,4.9-7.12,8.07-10a20.53,20.53,0,0,1,1.63-1.34,25.23,25.23,0,0,0-7.13,4.48c-3.17,2.9-5.39,6.66-8.07,10a42.15,42.15,0,0,1-9.57,8.7A43.29,43.29,0,0,0,475.08,36.57Z"/><path d="M551,254.8c-10.36,1.71-20.79,3.42-31.3,3.36-5.12,0-10.39-.52-14.93-2.89s-8.21-7-8.16-12.1c.05-7.35,7-12.44,13-16.7,10.42-7.39,20.67-17.14,22.18-29.82,1-8.43-2.07-16.78-5.35-24.63-5-11.95-12.63-25.19-25.49-26.9-11-1.47-21.44,6.39-32.54,5.93-9-.38-16.68-6.18-22.11-13-4-5-6.46-11.6-12.4-14.55-14.74-7.3-34.11-1.82-45.61-16.62-7-9-6.22-21.76-3.65-32.84,1.62-7,3.93-14,8.45-19.61a25.54,25.54,0,0,1,4.31-4.17,24.48,24.48,0,0,0-9.81,7.3c-4.56,5.57-6.83,12.62-8.46,19.6-2.58,11.11-3.34,23.85,3.65,32.84,11.46,14.77,30.82,9.3,45.61,16.62,5.94,3,8.44,9.6,12.39,14.59,5.47,6.8,13.1,12.61,22.11,13,11.1.47,21.54-7.41,32.55-5.94,12.84,1.71,20.48,15,25.49,26.91,3.28,7.83,6.39,16.16,5.35,24.63-1.51,12.68-11.77,22.43-22.18,29.82-6,4.25-13,9.35-13,16.7,0,5.12,3.65,9.73,8.21,12.1s9.82,2.86,14.93,2.89c10.51.06,21-1.65,31.3-3.37,34.66-5.72,69.39-11.45,103.52-19.83a51.25,51.25,0,0,1-6-.42C612.61,244.63,581.78,249.72,551,254.8Z"/></g><ellipse class="cls-9" cx="293.52" cy="419.79" rx="14.96" ry="8.17"/></g></g></g></svg>