<svg xmlns="http://www.w3.org/2000/svg" xmlns:xlink="http://www.w3.org/1999/xlink" viewBox="0 0 674.96 581.44"><defs><style>.cls-1{fill:url(#linear-gradient);}.cls-2{fill:url(#linear-gradient-2);}.cls-3{fill:url(#linear-gradient-3);}.cls-4{fill:url(#linear-gradient-4);}.cls-5{fill:url(#linear-gradient-5);}.cls-6{fill:url(#linear-gradient-6);}.cls-7{fill:#fff;}.cls-8{fill:#92b0ee;}.cls-9{fill:#f9ac1b;}.cls-10{fill:#e36329;}.cls-11{fill:url(#linear-gradient-7);}.cls-12{fill:#cea28b;}.cls-13{fill:#0071bc;}.cls-14{opacity:0.1;}.cls-14,.cls-16{isolation:isolate;}.cls-15{fill:#132a35;}.cls-16{opacity:0.05;}.cls-17{fill:#0d1f25;}</style><linearGradient id="linear-gradient" x1="507.22" y1="-1948.43" x2="507.22" y2="-1900.42" gradientTransform="matrix(1, 0, 0, -1, 0, -1810.13)" gradientUnits="userSpaceOnUse"><stop offset="0" stop-color="gray" stop-opacity="0.25"/><stop offset="0.54" stop-color="gray" stop-opacity="0.12"/><stop offset="1" stop-color="gray" stop-opacity="0.1"/></linearGradient><linearGradient id="linear-gradient-2" x1="574.93" y1="-1989.8" x2="574.93" y2="-1941.8" xlink:href="#linear-gradient"/><linearGradient id="linear-gradient-3" x1="650.17" y1="-1937.14" x2="650.17" y2="-1889.14" xlink:href="#linear-gradient"/><linearGradient id="linear-gradient-4" x1="573.88" y1="-1858.34" x2="573.88" y2="-1810.34" xlink:href="#linear-gradient"/><linearGradient id="linear-gradient-5" x1="498.86" y1="-1858.14" x2="498.86" y2="-1810.13" xlink:href="#linear-gradient"/><linearGradient id="linear-gradient-6" x1="431.14" y1="-1899.52" x2="431.14" y2="-1851.52" xlink:href="#linear-gradient"/><linearGradient id="linear-gradient-7" x1="359.33" y1="-2561.06" x2="359.33" y2="-2020.72" gradientTransform="matrix(1, 0, 0, -1, -138, -1979.61)" xlink:href="#linear-gradient"/></defs><title>student_illo</title><g id="Layer_2" data-name="Layer 2"><g id="contributor"><g id="Student"><rect class="cls-1" x="482.43" y="90.29" width="49.58" height="48"/><rect class="cls-2" x="550.14" y="131.66" width="49.58" height="48"/><rect class="cls-3" x="625.38" y="79" width="49.58" height="48"/><rect class="cls-4" x="549.09" y="0.21" width="49.58" height="48"/><rect class="cls-5" x="474.07" width="49.58" height="48"/><rect class="cls-6" x="406.35" y="41.38" width="49.58" height="48"/><rect class="cls-7" x="481.22" y="104.15" width="47.88" height="46.35"/><rect class="cls-7" x="548.93" y="145.53" width="47.88" height="46.35"/><rect class="cls-7" x="624.17" y="92.86" width="47.88" height="46.35"/><rect class="cls-8" x="547.89" y="14.08" width="47.88" height="46.35"/><rect class="cls-9" x="472.86" y="13.87" width="47.88" height="46.35"/><rect class="cls-8" x="405.15" y="55.24" width="47.88" height="46.35"/><path class="cls-10" d="M167.48,388.33h0A167.48,167.48,0,0,1,335,555.8v2.59H0V555.8A167.48,167.48,0,0,1,167.48,388.31Z"/><path class="cls-11" d="M333.13,554l-14.76-8.18c-15.45-8.39-19.12-20.3-19.23-29.48a37.94,37.94,0,0,1,.34-4.65L320,430.36s22.92-47.49-9-61.39c-24.57-10.71-83.63-27.31-109.48-34.31,5.85-6,9.62-10.72,9.62-10.72l-.69-1.61.69-.85s-3-6.91-7.2-17.2L217.7,292s-.53-.09-1.39-.3l.57-.52s-.56-.1-1.48-.32c9.6-8.38,31.31-28.88,20.31-34.06-10.61-5-30.75,11-39.71,18.81-.74.28-1.63.61-2.67,1-1.37-3.81-2.71-7.66-4-11.5L207,237.16c.05-.53.08-1,.08-1.52,5.47-7.67,21.4-32.15,9.74-41C204,184.78,191.21,216,189.28,221c-1.16-.15-1.89-.17-1.89-.17-1.29,2.57-4.58,4.47-7.45,5.69v-.75a6.35,6.35,0,0,1,.05-1,91.26,91.26,0,0,0,.33-9.4c0-1.86,0-3.71-.15-5.57-.35-5-.72-11.41-.77-17,0-5,.44-8.94,1.45-9.7l-.78-.87a3,3,0,0,1,.78-1.59s-.83-.94-2.18-2.43c2.37-6.82,6.06-16.81,10-25.43l.85-.18c.3-.62.6-1.24.9-1.85A38.47,38.47,0,0,0,205.8,84.25a5.69,5.69,0,0,0,1.22-.84c2.07-1.94,2.23-5.19,2.21-8q0-10.63-.1-21.27c0-2.75,0-5.6-1.21-8.09a7.9,7.9,0,0,0-2-2.61,6,6,0,0,0-5.34-2.29c-2.49.4-4.2,2.61-5.89,4.49A34.13,34.13,0,0,1,159,54.83c-3.11-1-6.09-2.61-9.33-3s-7,.86-8.3,3.87c-1.47,3.35.6,7.38-.56,10.86-2.24,6.74-13.6,5.52-16.95,11.78-2.81,5.26,2,11.11,5.19,16.12,6,9.33,7.1,20.87,10.24,31.51,1.29,4.39,4.74,14,9.6,18.44a14.41,14.41,0,0,0,1.42,1.34A93.7,93.7,0,0,1,147.05,156a11.8,11.8,0,0,0-7.91.85c-7.36,4.1-44.21,23.74-46.67,75.31-.17,3.54-.24,7.31-.22,11.27C92,297,108.85,387.75,108.85,387.75s2.68-2.68,7-6.34c6.67,9.63,28,23.57,95.31,25.17l67.93,2.49s7.36,4.92-2.46,16.38c-6.44,7.52-7.26,24.89-7,36a91.93,91.93,0,0,1-2.32,22.33c-1.76,7.66-4,17.07-5.5,22.82a26.27,26.27,0,0,1-2.33-1.64l-9.82,64.67h.11l-.11.79s72,20.46,93.34,5.73c5.71-4,7.64-7.32,7.43-10.12C351,557.75,333.13,554,333.13,554Z"/><path class="cls-12" d="M155.84,132.87s-4,35-16.69,42.11,38.18,15.09,38.18,15.09,14.3-45.29,23.85-49.26S155.84,132.87,155.84,132.87Z"/><path class="cls-12" d="M190,224.25S203.48,187.7,217,198s-11.13,42.11-11.13,42.11Z"/><path class="cls-13" d="M116.15,370.45s-5.56,31,95.35,33.37l65.95,2.39s7.16,4.77-2.39,15.89c-6.22,7.26-7,24.16-6.83,34.91A89.19,89.19,0,0,1,266,478.66c-2.46,10.69-5.83,24.89-6.8,26.87-1.59,3.17,37.33,3.17,37.33,3.17l20.66-81.84s22.24-46.09-8.74-59.59S190,330.72,190,330.72Z"/><path class="cls-14" d="M284.56,503.15s11.09-9.95,14.67-6.16c0,0-11.5,26.83,16.31,41.92l14.3,7.94s30.19,6.36,9.53,20.66-90.58-5.56-90.58-5.56l9.53-62.77S271.84,510.3,284.56,503.15Z"/><path class="cls-15" d="M284.56,503.94s11.09-9.95,14.67-6.16c0,0-11.5,26.83,16.31,41.92l14.3,7.94S360,554,339.38,568.3s-90.58-5.56-90.58-5.56L258.33,500S271.84,511.09,284.56,503.94Z"/><path class="cls-15" d="M176.5,230.61s9.53-2.39,11.92-7.16c0,0,20.66.8,19.07,15.89l-20.66,32.57Z"/><path class="cls-16" d="M176.5,230.61s9.53-2.39,11.92-7.16c0,0,20.66.8,19.07,15.89l-20.66,32.57Z"/><path class="cls-14" d="M160.6,167.83s-11.92-7.94-19.07-4-42.9,23-45.29,73.06,15.89,148.59,15.89,148.59,27-27,48.47-26.22,50.82-35.76,50.82-35.76-32.15-73.33-30.25-96.24a80.06,80.06,0,0,0,.19-12.14c-.72-10.28-1.5-26.65.66-28.28C182.06,186.9,164.58,167,160.6,167.83Z"/><path class="cls-15" d="M160.6,165.45s-11.92-7.94-19.07-4-42.9,23-45.29,73.1,15.9,148.57,15.9,148.57,27-27,48.47-26.22,50.82-35.76,50.82-35.76-32.15-73.33-30.25-96.24a80.06,80.06,0,0,0,.19-12.14c-.72-10.28-1.5-26.65.66-28.28C182.06,184.52,164.58,164.66,160.6,165.45Z"/><path class="cls-12" d="M192.38,280.66s29.4-28.6,42.9-22.24S211.44,295,211.44,295Z"/><path class="cls-14" d="M122.47,228.22s9.53,79.46,15.1,84.23,23,27,58,0l22.21-19.87s-21.46-4-18.27-15.89c0,0-28.6,11.92-33.37,2.39s7.16-53.23,7.16-53.23-6.36-38.93-24.63-31.79S122.47,228.22,122.47,228.22Z"/><path class="cls-15" d="M121.67,227.43s9.53,79.46,15.1,84.23,23,27,58,0L217,291.8s-21.46-4-18.27-15.89c0,0-28.6,11.92-33.37,2.39s7.16-53.23,7.16-53.23-6.36-39-24.63-31.81S121.67,227.43,121.67,227.43Z"/><path class="cls-14" d="M155.84,134.46s.92,1.19-.39,7.55c6.84,7.8,15.42,16.29,26.62,16.29a37.43,37.43,0,0,0,8.47-1c3.59-7.47,7.36-13.56,10.6-14.91C210.66,138.4,155.84,134.46,155.84,134.46Z"/><circle class="cls-12" cx="182.06" cy="119.37" r="37.34"/><path class="cls-14" d="M165.46,136.54c.61-2.86,1.12-6.17-.71-8.46-1-1.35-2.77-2.07-4-3.28-4.23-4.27-.51-11.51,3.84-15.67a63.18,63.18,0,0,1,36.3-17c2.3-.26,4.8-.47,6.5-2.07,2.07-1.89,2.16-5,2.15-7.77l-.1-20.64c0-2.67,0-5.43-1.17-7.85s-3.67-4.39-6.31-4c-2.42.39-4.08,2.54-5.71,4.37a33.12,33.12,0,0,1-34.63,8.94c-3-1-5.91-2.54-9.07-2.88s-6.8.84-8.09,3.75c-1.43,3.26.58,7.17-.54,10.54-2.18,6.54-13.2,5.35-16.45,11.41-2.73,5.1,1.91,10.79,5.05,15.65,5.85,9,6.9,20.25,9.94,30.58,1.61,5.49,6.7,19.32,13.73,20.2C164.55,153.52,164.17,142.66,165.46,136.54Z"/><path class="cls-17" d="M164.67,135.75c.61-2.86,1.12-6.17-.71-8.46-1-1.35-2.77-2.07-4-3.28-4.23-4.27-.51-11.53,3.87-15.68a63.18,63.18,0,0,1,36.3-17c2.3-.26,4.8-.47,6.5-2.07,2.07-1.89,2.16-5,2.15-7.77l-.1-20.64c0-2.67,0-5.43-1.17-7.85s-3.67-4.39-6.31-4c-2.42.39-4.08,2.54-5.71,4.37a33.12,33.12,0,0,1-34.63,8.94c-3-1-5.91-2.54-9.07-2.88s-6.8.84-8.09,3.75c-1.43,3.26.58,7.17-.54,10.54C141,80.32,130,79.12,126.73,85.18c-2.73,5.1,1.91,10.79,5.05,15.65,5.85,9,6.9,20.25,9.94,30.58,1.61,5.49,6.7,19.32,13.73,20.2C163.75,152.72,163.37,141.86,164.67,135.75Z"/><rect class="cls-9" x="200.64" y="160.62" width="50.77" height="49.16" transform="translate(-33.92 51.72) rotate(-12.15)"/></g></g></g></svg>