<svg xmlns="http://www.w3.org/2000/svg" viewBox="0 0 24 24"><defs><style>.cls-1{fill:#f5f5f5;}</style></defs><title>facebook</title><g id="Layer_2" data-name="Layer 2"><g id="Layer_2-2" data-name="Layer 2"><g id="Signup"><g id="Form_panel"><g id="Facebook"><path class="cls-1" d="M21.6,0H2.4A2.41,2.41,0,0,0,0,2.4V21.6A2.41,2.41,0,0,0,2.4,24H21.6A2.41,2.41,0,0,0,24,21.6V2.4A2.41,2.41,0,0,0,21.6,0ZM20.4,2.4V6H18a1.13,1.13,0,0,0-1.2,1.2V9.6h3.6v3.6H16.8v8.4H13.2V13.2H10.8V9.6h2.4v-3a4.25,4.25,0,0,1,4.2-4.2Z"/></g></g></g></g></g></svg>