<svg xmlns="http://www.w3.org/2000/svg" viewBox="0 0 16 16"><defs><style>.cls-1{fill:#959595;}</style></defs><title>feedback_icon</title><g id="Layer_2" data-name="Layer 2"><g id="contributor"><path class="cls-1" d="M15.5,11.77a1.72,1.72,0,0,0-.34-1,1.72,1.72,0,0,0,0-3A1.72,1.72,0,0,0,13.77,5H9.85L11.5,3.37A2,2,0,1,0,8.71.58L4.27,5H.47A.47.47,0,0,0,0,5.49V13a.47.47,0,0,0,.47.47H2.55A3,3,0,0,0,5.49,16h7.78a1.72,1.72,0,0,0,1.38-2.75A1.72,1.72,0,0,0,15.5,11.77Zm-1.72.79h-3a.79.79,0,1,1,0-1.57h3a.79.79,0,1,1,0,1.57ZM10,9.25a.79.79,0,0,1,.79-.79h3.51a.79.79,0,0,1,0,1.57H10.76A.79.79,0,0,1,10,9.25Zm4.59-2.51a.79.79,0,0,1-.79.79h-3a.79.79,0,1,1,0-1.57h3A.79.79,0,0,1,14.56,6.74ZM3.45,13A.47.47,0,0,0,3,12.55h-2V6H4.46a.47.47,0,0,0,.33-.14L9.37,1.24a1,1,0,0,1,1.47,1.47L8.39,5.16a.47.47,0,0,0,.33.8h.51A1.71,1.71,0,0,0,9,6.74V8a2,2,0,0,1-2,2A.47.47,0,1,0,7,11a3,3,0,0,0,2.21-1,1.73,1.73,0,0,0,.38.51,1.72,1.72,0,0,0,.3,2.74,1.72,1.72,0,0,0-.15,1.82H5.49A2,2,0,0,1,3.45,13Zm9.82,2h-2a.79.79,0,0,1,0-1.57h2a.79.79,0,1,1,0,1.57Z"/></g></g></svg>