<svg xmlns="http://www.w3.org/2000/svg" viewBox="0 0 401.07 494.93"><defs><style>.cls-1{fill:#e36329;}.cls-2{fill:#e5e5e5;}.cls-3{fill:#d5d5d5;}.cls-4{fill:#c15227;}.cls-5{fill:#132a35;}.cls-6{fill:#f9ac1b;}.cls-7{fill:#e7eced;}</style></defs><title>guide</title><g id="Layer_2" data-name="Layer 2"><g id="Capa_1" data-name="Capa 1"><path class="cls-1" d="M68.27,0A68.47,68.47,0,0,0,0,68.27V412.21c.1-.17.15-.35.26-.51a6.58,6.58,0,0,1,5.25-3.24,68.49,68.49,0,0,1,62.76-41.52h332.8V0Z"/><path class="cls-2" d="M68.27,341.33a68.27,68.27,0,0,0,0,136.53H128V409.6h51.2v68.27H401.07V341.33Z"/><path class="cls-3" d="M68.27,375.47a34.13,34.13,0,1,0,0,68.27H128V409.6h51.2v34.13H401.07V375.47Z"/><path class="cls-1" d="M59.73.6A68.46,68.46,0,0,0,0,68.27V409.6a68.46,68.46,0,0,1,59.73-67.67V.6Z"/><path class="cls-4" d="M0,126.81v52.4a68.46,68.46,0,0,1,59.73-67.67V59.14A68.47,68.47,0,0,0,0,126.81Z"/><path class="cls-4" d="M0,263.94v52.39a68.46,68.46,0,0,1,59.73-67.67V196.27A68.46,68.46,0,0,0,0,263.94Z"/><polygon class="cls-5" points="179.2 494.93 153.6 469.33 128 494.93 128 401.07 179.2 401.07 179.2 494.93"/><path class="cls-6" d="M298.67,119.47a68.28,68.28,0,0,0-76.21-67.81c-30.69,3.47-55.84,28.21-59.74,58.85a68.16,68.16,0,0,0,25.9,62.92c9.81,7.6,16.19,18.79,16.19,31.21v8.71H256V205.6c0-12.15,5.2-24,15-31.27A68,68,0,0,0,298.67,119.47Z"/><path class="cls-7" d="M230.4,264.53h0a25.6,25.6,0,0,1-25.6-25.6v-25.6H256v25.6A25.6,25.6,0,0,1,230.4,264.53Z"/></g></g></svg>