<svg xmlns="http://www.w3.org/2000/svg" viewBox="0 0 64 64">
    <path d="M51.6,1H12.4C6.1,1,1,6.1,1,12.4v39.3C1,57.9,6.1,63,12.4,63h39.3C57.9,63,63,57.9,63,51.6V12.4
        C63,6.1,57.9,1,51.6,1L51.6,1z M32,52.4c-11.3,0-20.4-9.2-20.4-20.4c0-11.3,9.2-20.4,20.4-20.4c11.3,0,20.4,9.2,20.4,20.4
        C52.4,43.2,43.2,52.4,32,52.4L32,52.4z M53.1,15.8c-2.7,0-4.8-2.2-4.8-4.8c0-2.7,2.2-4.8,4.8-4.8c2.7,0,4.8,2.2,4.8,4.8
        C57.9,13.6,55.7,15.8,53.1,15.8L53.1,15.8z M53.1,15.8"/>
        <path d="M32,20.2c-6.5,0-11.8,5.3-11.8,11.8c0,6.5,5.3,11.8,11.8,11.8c6.5,0,11.8-5.3,11.8-11.8
                             C43.8,25.5,38.5,20.2,32,20.2L32,20.2z M32,20.2"/>
</svg>