<svg xmlns="http://www.w3.org/2000/svg" viewBox="0 0 10.55 16"><defs><style>.cls-1{fill:#959595;}</style></defs><title>question_mark</title><g id="Layer_2" data-name="Layer 2"><g id="contributor"><path class="cls-1" d="M5.06,0c2.77,0,5.49,1.27,5.49,4.32,0,2.81-3.22,3.89-3.91,4.91C6.12,10,6.29,11,4.86,11A1.38,1.38,0,0,1,3.48,9.6C3.48,7,7.26,6.44,7.26,4.32c0-1.17-.78-1.86-2.07-1.86-2.77,0-1.69,2.85-3.78,2.85A1.29,1.29,0,0,1,0,4C0,1.88,2.42,0,5.06,0ZM5,12.45a1.77,1.77,0,1,1-1.77,1.77A1.78,1.78,0,0,1,5,12.45Z"/></g></g></svg>