<svg xmlns="http://www.w3.org/2000/svg" viewBox="0 0 18.14 16"><defs><style>.cls-1{fill:#959595;}</style></defs><title>sold_icon</title><g id="Layer_2" data-name="Layer 2"><g id="contributor"><path class="cls-1" d="M7.87,7.83A.54.54,0,0,0,8.25,8a.55.55,0,0,0,.38-.16L12,4.5a.54.54,0,0,0-.77-.77L8.25,6.69,7.06,5.5a.54.54,0,1,0-.77.77Z"/><path class="cls-1" d="M17.89,2.42a.3.3,0,0,0-.36.23h0l-1.16,5a3.31,3.31,0,0,1-3.23,2.58H3.78l-1-8.94A1.51,1.51,0,0,0,1.25,0H.3A.3.3,0,0,0,.3.6h1a.91.91,0,0,1,.91.8L3.52,13.16a1.51,1.51,0,0,0,1.36,1.33,1.81,1.81,0,0,0,3.57,0h3a1.81,1.81,0,1,0,0-.6h-3a1.81,1.81,0,0,0-3.57,0,.91.91,0,0,1-.76-.79l-.27-2.22h9.28a3.91,3.91,0,0,0,3.82-3l1.18-5.08a.3.3,0,0,0-.23-.36ZM13.36,13a1.18,1.18,0,1,1-.06,0ZM6.65,13A1.21,1.21,0,1,1,5.44,14.2,1.21,1.21,0,0,1,6.65,13Z"/></g></g></svg>