<svg xmlns="http://www.w3.org/2000/svg" viewBox="0 0 492 492.02"><defs><style>.cls-1{fill:#e1e5ea;}.cls-2{fill:#f9ac1b;}.cls-3{fill:#e36329;}.cls-4{fill:#92b0ee;}.cls-5{fill:#fad79b;}</style></defs><title>create_sets</title><g id="Layer_2" data-name="Layer 2"><g id="Layer_1-2" data-name="Layer 1"><path class="cls-1" d="M0,0V412H492V0ZM296,190H396a10,10,0,0,1,0,20H296a10,10,0,0,1,0-20ZM40,50A10,10,0,1,1,50,40,10,10,0,0,1,40,50ZM356,290H296a10,10,0,0,1,0-20h60a10,10,0,0,1,0,20Zm80,0H396a10,10,0,0,1,0-20h40a10,10,0,0,1,0,20Zm0-40H296a10,10,0,0,1,0-20H436a10,10,0,0,1,0,20Zm0-40a10,10,0,1,1,10-10A10,10,0,0,1,436,210Z"/><path class="cls-2" d="M217,270a70,70,0,1,1-70-70A70,70,0,0,1,217,270Z"/><path class="cls-3" d="M160,0l28.75,57.49A40.69,40.69,0,0,0,225.16,80H492V0ZM372,50a10,10,0,1,1,10-10A10,10,0,0,1,372,50Zm40,0a10,10,0,1,1,10-10A10,10,0,0,1,412,50Zm40,0a10,10,0,1,1,10-10A10,10,0,0,1,452,50Z"/><path class="cls-4" d="M56,120H436v40H56Z"/><path class="cls-5" d="M69.72,384.26C61.95,379,47.95,381,41.95,393c-5.11,10.21,1,25,10,30l53.57,33.12c25.93,16,39.06,22.88,39.06,35.88l136.65,0c0-30.09,0-20.31.08-20.53l10.61-24.09V340.18a20.69,20.69,0,0,0-20.73-20.64c-11.45,0-20.73,6.78-20.73,18.18v-4.06c0-11.4-9.28-23.11-20.73-23.11A20.69,20.69,0,0,0,209,331.2v-10a20.73,20.73,0,0,0-41.46,0V260.64a20.73,20.73,0,0,0-41.46,0V390c0,11.25-9.12,16.37-20.37,16.37Z"/></g></g></svg>