<svg xmlns="http://www.w3.org/2000/svg" viewBox="0 0 59.27 55.98"><defs><style>.cls-1{fill:#92b0ee;}.cls-2{fill:#132a35;}.cls-3{fill:#eddcc7;}.cls-4{fill:#d75a4a;}.cls-5{fill:#f29c21;}.cls-6{fill:#d6c4b1;}.cls-7{fill:#a34740;}.cls-8{fill:#e18c25;}.cls-9{fill:#5e5e5e;}</style></defs><title>update_profile</title><g id="Layer_2" data-name="Layer 2"><g id="Capa_1" data-name="Capa 1"><path class="cls-1" d="M53.57,42.78,44,38a3.64,3.64,0,0,1-2-3.26V31a14.28,14.28,0,0,0,.9-1.16,22,22,0,0,0,3-6A3,3,0,0,0,48,21V17a3,3,0,0,0-1-2.22V9s1.19-9-11-9S25,9,25,9v5.78A3,3,0,0,0,24,17v4a3,3,0,0,0,1.38,2.52A19.83,19.83,0,0,0,29,31v3.65a3.64,3.64,0,0,1-1.9,3.2l-8.92,4.87a8,8,0,0,0-4.18,7V53H58V50A8,8,0,0,0,53.57,42.78Z"/><path class="cls-2" d="M18.18,42.72l5.95-3.24s0,0,.07,0l2.91-1.59a3.64,3.64,0,0,0,1.9-3.2V31a19,19,0,0,1-2.09-3.32h0c-.14-.27-.27-.55-.4-.84l-.05-.12c-.13-.3-.26-.62-.39-.94l0-.07c-.11-.29-.21-.59-.31-.9l-.08-.25c-.1-.34-.2-.68-.28-1A3,3,0,0,1,24,21V17a3,3,0,0,1,1-2.22V9.14A11,11,0,0,0,18,7C8.44,7,8,15,8,15v5a2.71,2.71,0,0,0-1,1.91v3.45a2.59,2.59,0,0,0,1.19,2.17A14.35,14.35,0,0,0,12,34v3.16a3.15,3.15,0,0,1-1.64,2.76l-6.7,4.2A6.93,6.93,0,0,0,0,50.2V53H14V49.76A8,8,0,0,1,18.18,42.72Z"/><polygon class="cls-3" points="37.84 46.49 37.83 46.5 35.84 53.79 40.49 49.14 37.84 46.49"/><path class="cls-4" d="M57.09,32.54l-1.25-1.25a2,2,0,0,0-2.81,0l-3.58,3.58,2.65,2.65Z"/><rect class="cls-5" x="36.76" y="40.13" width="16.42" height="3.75" transform="translate(-16.53 44.1) rotate(-45)"/><polygon class="cls-6" points="43.48 52.15 43.49 52.15 40.49 49.14 35.84 53.79 35.71 54.27 43.48 52.15"/><path class="cls-7" d="M55.11,40.53l3.58-3.58a2,2,0,0,0,0-2.81l-1.6-1.6-5,5Z"/><rect class="cls-8" x="39.58" y="42.71" width="16.42" height="4.25" transform="translate(-17.71 46.93) rotate(-45)"/><path class="cls-9" d="M35,56a1,1,0,0,1-.71-1.71l2.21-2.21a1,1,0,0,1,1.41,1.41l-2.21,2.21A1,1,0,0,1,35,56Z"/></g></g></svg>